<svg xmlns="http://www.w3.org/2000/svg" viewBox="0 0 96 96" role="img" aria-label="海南沉香">
  <defs>
    <linearGradient id="smoke" x1="28" y1="16" x2="70" y2="72" gradientUnits="userSpaceOnUse">
      <stop stop-color="#c8b28a"/>
      <stop offset="1" stop-color="#5b4631"/>
    </linearGradient>
    <linearGradient id="ember" x1="34" y1="55" x2="62" y2="82" gradientUnits="userSpaceOnUse">
      <stop stop-color="#f8d36e"/>
      <stop offset=".6" stop-color="#b36b2b"/>
      <stop offset="1" stop-color="#57301f"/>
    </linearGradient>
  </defs>
  <rect width="96" height="96" rx="24" fill="#f5f1e8"/>
  <path d="M52 18c-11 10 7 15-6 28-8 8-8 16-1 23" fill="none" stroke="url(#smoke)" stroke-width="8" stroke-linecap="round"/>
  <path d="M38 25c-7 8 5 13-3 23-5 6-6 12-2 18" fill="none" stroke="#a18a68" stroke-width="5" stroke-linecap="round" opacity=".7"/>
  <path d="M34 72c8-15 27-19 36-7-6 11-26 14-36 7Z" fill="url(#ember)"/>
  <path d="M41 70c7-5 16-6 24-2" fill="none" stroke="#fff0bf" stroke-width="3" stroke-linecap="round" opacity=".8"/>
</svg>
